<svg width="21" height="20" viewBox="0 0 21 20" fill="none" xmlns="http://www.w3.org/2000/svg">
<path fill-rule="evenodd" clip-rule="evenodd" d="M4.6665 4.16667C4.20627 4.16667 3.83317 4.53976 3.83317 5V16.6667C3.83317 17.1269 4.20627 17.5 4.6665 17.5H16.3332C16.7934 17.5 17.1665 17.1269 17.1665 16.6667V5C17.1665 4.53976 16.7934 4.16667 16.3332 4.16667H4.6665ZM2.1665 5C2.1665 3.61929 3.28579 2.5 4.6665 2.5H16.3332C17.7139 2.5 18.8332 3.61929 18.8332 5V16.6667C18.8332 18.0474 17.7139 19.1667 16.3332 19.1667H4.6665C3.28579 19.1667 2.1665 18.0474 2.1665 16.6667V5Z" fill="white"/>
<path fill-rule="evenodd" clip-rule="evenodd" d="M13.8333 0.833374C14.2936 0.833374 14.6667 1.20647 14.6667 1.66671V5.00004C14.6667 5.46028 14.2936 5.83337 13.8333 5.83337C13.3731 5.83337 13 5.46028 13 5.00004V1.66671C13 1.20647 13.3731 0.833374 13.8333 0.833374Z" fill="white"/>
<path fill-rule="evenodd" clip-rule="evenodd" d="M7.16683 0.833374C7.62707 0.833374 8.00016 1.20647 8.00016 1.66671V5.00004C8.00016 5.46028 7.62707 5.83337 7.16683 5.83337C6.70659 5.83337 6.3335 5.46028 6.3335 5.00004V1.66671C6.3335 1.20647 6.70659 0.833374 7.16683 0.833374Z" fill="white"/>
<path fill-rule="evenodd" clip-rule="evenodd" d="M2.1665 8.33333C2.1665 7.8731 2.5396 7.5 2.99984 7.5H17.9998C18.4601 7.5 18.8332 7.8731 18.8332 8.33333C18.8332 8.79357 18.4601 9.16667 17.9998 9.16667H2.99984C2.5396 9.16667 2.1665 8.79357 2.1665 8.33333Z" fill="white"/>
</svg>
