<svg width="21" height="21" viewBox="0 0 21 21" fill="none" xmlns="http://www.w3.org/2000/svg">
<g clip-path="url(#clip0_10055_3964)">
<path d="M10.6983 20.1661C10.6315 20.1661 10.5648 20.1661 10.4975 20.1658C8.91685 20.1697 7.45633 20.1295 6.03597 20.043C4.73377 19.9638 3.54511 19.5138 2.5983 18.7418C1.68473 17.9968 1.06086 16.9895 0.744081 15.7483C0.468379 14.6676 0.453763 13.6068 0.439762 12.5808C0.429608 11.8446 0.419146 10.9722 0.416992 10.0851C0.419146 9.19432 0.429608 8.32198 0.439762 7.5858C0.453763 6.55991 0.468379 5.4991 0.744081 4.41829C1.06086 3.17701 1.68473 2.16974 2.5983 1.42479C3.54511 0.652764 4.73377 0.202747 6.03613 0.123513C7.45649 0.0372023 8.91731 -0.00310689 10.5014 0.000739412C12.0825 -0.00264533 13.5426 0.0372023 14.9629 0.123513C16.2651 0.202747 17.4538 0.652764 18.4006 1.42479C19.3143 2.16974 19.938 3.17701 20.2548 4.41829C20.5305 5.49895 20.5451 6.55991 20.5591 7.5858C20.5693 8.32198 20.5799 9.19432 20.5819 10.0814C20.5799 10.9722 20.5693 11.8446 20.5591 12.5808C20.5533 13.0159 20.1939 13.3636 19.7608 13.3577C19.3257 13.3517 18.978 12.9942 18.9838 12.5592C18.9938 11.8273 19.0045 10.9607 19.0065 10.0814C19.0045 9.20586 18.9938 8.33921 18.9838 7.60734C18.9711 6.6733 18.9578 5.70742 18.7283 4.80785C18.4967 3.90043 18.0515 3.17301 17.405 2.64576C16.7058 2.07543 15.8519 1.75588 14.8672 1.69603C13.4803 1.61172 12.0525 1.5728 10.5014 1.57603C8.94654 1.57234 7.51864 1.61172 6.13167 1.69603C5.14702 1.75588 4.29329 2.07543 3.59388 2.64561C2.94739 3.17286 2.50215 3.90027 2.2706 4.80785C2.04105 5.70742 2.02782 6.6733 2.01505 7.60734C2.00505 8.33921 1.99459 9.20586 1.99244 10.0851C1.99459 10.9607 2.00505 11.8273 2.01505 12.5592C2.02782 13.4933 2.04105 14.4591 2.2706 15.3587C2.50215 16.2661 2.94739 16.9935 3.59388 17.5208C4.29329 18.0911 5.14702 18.4107 6.13167 18.4705C7.51864 18.5548 8.94685 18.5942 10.4977 18.5904C12.0527 18.5941 13.4803 18.5548 14.8672 18.4705C15.8519 18.4107 16.7056 18.0911 17.405 17.5208C17.8707 17.1409 18.2346 16.6535 18.4864 16.072C18.6594 15.6729 19.1231 15.4893 19.5223 15.6623C19.9216 15.8352 20.105 16.2989 19.9322 16.6981C19.5791 17.5134 19.0638 18.201 18.4006 18.7418C17.4538 19.5139 16.2651 19.9638 14.9629 20.043C13.6027 20.1258 12.2054 20.1661 10.6983 20.1661ZM15.3832 10.0833C15.3832 7.36856 13.1747 5.16001 10.46 5.16001C7.74542 5.16001 5.53672 7.36856 5.53672 10.0833C5.53672 12.798 7.74542 15.0065 10.46 15.0065C13.1747 15.0065 15.3832 12.798 15.3832 10.0833ZM13.8078 10.0833C13.8078 11.9292 12.3061 13.4311 10.46 13.4311C8.61407 13.4311 7.11217 11.9292 7.11217 10.0833C7.11217 8.23736 8.61407 6.73546 10.46 6.73546C12.3061 6.73546 13.8078 8.23736 13.8078 10.0833ZM15.9347 3.58457C15.2822 3.58457 14.7531 4.11351 14.7531 4.76615C14.7531 5.41879 15.2822 5.94774 15.9347 5.94774C16.5873 5.94774 17.1162 5.41879 17.1162 4.76615C17.1162 4.11351 16.5873 3.58457 15.9347 3.58457Z" fill="#1B435F"/>
</g>
<defs>
<clipPath id="clip0_10055_3964">
<rect width="20.1657" height="20.1657" fill="white" transform="translate(0.416992)"/>
</clipPath>
</defs>
</svg>
