<svg width="123" height="54" viewBox="0 0 123 54" fill="none" xmlns="http://www.w3.org/2000/svg">
<path d="M116.29 40.9995V0.112427H120.245V41.0007H116.29V40.9995Z" fill="white"/>
<path d="M5.92789 7.987H5.92452V3.95609H7.56674H12.3026V0.119385C12.3026 0.119385 6.1232 0.119385 4.89743 0.119385C3.31358 0.119385 2.02832 1.1128 2.02832 2.92564C2.02832 3.11197 2.02832 41.0009 2.02832 41.0009H5.92901V20.5904H12.3026V16.7447H5.92901V7.987H5.92789Z" fill="white"/>
<path d="M62.5091 4.84173V10.3409H66.3536C66.3536 10.3409 66.3536 4.00098 66.3536 2.50244L62.5091 4.84173ZM62.5091 37.1496H57.4511V4.87765L53.6099 2.52714C53.6099 6.27629 53.6099 37.1496 53.6099 37.1496C53.6099 39.719 54.8895 41.0009 57.4511 41.0009H62.5091C65.0751 41.0009 66.3536 39.7201 66.3536 37.1496V25.6866H62.5091V37.1496Z" fill="white"/>
<path d="M29.4006 40.9994H25.5515V20.5901H20.4969V41.0006H16.6523V3.95465C16.6523 1.3931 17.8759 0.111206 20.324 0.111206H25.7278C28.1748 0.111206 29.4006 1.3931 29.4006 3.95465V40.9994ZM25.5515 3.95465H20.4969V16.7433H25.5515V3.95465Z" fill="white"/>
<path d="M38.769 37.1493H43.8281V20.5901H38.769C36.2097 20.5901 34.9233 19.3082 34.9233 16.7444V3.95465C34.9233 1.39647 36.1457 0.111206 38.5984 0.111206H44.0021C46.4481 0.111206 47.6727 1.39535 47.6727 3.95465V10.3305H43.8281V3.95465H38.769V16.7433H43.8281C46.3908 16.7433 47.6727 18.0241 47.6727 20.589V37.1481C47.6727 39.7175 46.3908 40.9994 43.8281 40.9994H38.769C36.2097 40.9994 34.9233 39.7187 34.9233 37.1481V25.6784H38.769V37.1493Z" fill="white"/>
<path d="M72.9336 40.9995V0.112427H77.0139V41.0007H72.9336V40.9995Z" fill="white"/>
<path d="M82.7046 3.95465C82.7046 1.3931 83.9281 0.111206 86.3774 0.111206H91.7811C94.2293 0.111206 95.454 1.3931 95.454 3.95465V37.1481C95.454 39.7175 94.1732 40.9994 91.6071 40.9994H86.5492C83.9854 40.9994 82.7046 39.7187 82.7046 37.1481V3.95465ZM86.5492 37.1493H91.6071V3.95465H86.5492V37.1493Z" fill="white"/>
<path d="M101.115 39.0924C101.115 40.3114 102.372 41.0007 103.359 41.0007H112.161V37.1415H105.123V0.112427H101.115V39.0924Z" fill="white"/>
<path d="M54.5718 0.0999756H65.3927L59.98 3.36982L54.5718 0.0999756Z" fill="#C4C4C4"/>
<path d="M3.12841 46.4799H3.41465L5.68435 52.2731C5.77527 52.5066 5.96385 52.6233 6.24672 52.6233H6.44316V52.9432H3.91641V52.6233H4.11846C4.38 52.6233 4.56521 52.593 4.67297 52.5358C4.7493 52.4942 4.7841 52.4358 4.7841 52.3505C4.7841 52.3023 4.774 52.2506 4.75604 52.1934L4.23183 50.8509H1.72753L1.43568 51.6209C1.3571 51.8297 1.31894 51.9913 1.31894 52.1148C1.31894 52.2495 1.38404 52.3696 1.51313 52.4718C1.64222 52.5706 1.83417 52.6233 2.08224 52.6233H2.29552V52.9432H0V52.6233C0.245828 52.6233 0.438898 52.5683 0.582578 52.4617C0.725136 52.3539 0.856469 52.1496 0.975454 51.8521L3.12841 46.4799ZM3.00381 47.7011L1.86672 50.5175H4.10162L3.00381 47.7011Z" fill="#C4C4C4"/>
<path d="M6.69434 46.6094H9.96643C10.4513 46.6094 10.8644 46.6936 11.2023 46.8642C11.6277 47.0831 11.9836 47.4434 12.2833 47.9508C12.5774 48.4559 12.7255 49.0519 12.7255 49.7445C12.7255 50.3148 12.6357 50.8289 12.4584 51.2801C12.3248 51.6314 12.1194 51.9424 11.8388 52.2028C11.5637 52.4643 11.2225 52.6619 10.8229 52.7944C10.5232 52.8909 10.1236 52.9414 9.62519 52.9414H6.69546V52.6215H7.29712C7.44754 52.6215 7.5553 52.5968 7.60918 52.5463C7.66867 52.5014 7.69673 52.4239 7.69673 52.3184V47.22C7.69673 47.1336 7.66642 47.0651 7.60244 47.0112C7.53958 46.9585 7.45315 46.9293 7.34314 46.9293H6.69546V46.6094H6.69434ZM8.98985 46.9293C8.86076 46.9293 8.76647 46.9607 8.70586 47.0135C8.643 47.0674 8.61269 47.1482 8.61269 47.2526V52.3072C8.61269 52.4105 8.64749 52.4879 8.71821 52.5407C8.79117 52.5912 8.91352 52.6215 9.08414 52.6215H9.62294C10.1056 52.6215 10.5266 52.4935 10.8902 52.2488C11.126 52.0804 11.3056 51.8503 11.4279 51.5495C11.5963 51.1454 11.6805 50.583 11.6805 49.8702C11.6805 48.8173 11.4975 48.0417 11.1293 47.5512C10.815 47.1381 10.3447 46.9304 9.70825 46.9304H8.98985V46.9293Z" fill="#C4C4C4"/>
<path d="M13.3608 46.6094H15.4667L17.3626 51.6079L19.1024 46.6094H21.2588V46.9293H20.7323C20.5471 46.9293 20.4214 46.9607 20.3585 47.0135C20.2934 47.0674 20.2609 47.1616 20.2609 47.293V52.3061C20.2609 52.4071 20.3024 52.4834 20.3776 52.5396C20.455 52.5901 20.5875 52.6204 20.775 52.6204H21.2599V52.9403H18.3638V52.6204H18.9026C19.0587 52.6204 19.172 52.5901 19.2484 52.5272C19.3236 52.4722 19.3606 52.3959 19.3606 52.3061V46.9293L17.266 52.9414H16.9775L14.7247 46.9574V51.5574C14.7247 51.8324 14.7572 52.0378 14.8257 52.1714C14.8953 52.3061 14.9941 52.4105 15.1198 52.4845C15.2444 52.5575 15.4577 52.6024 15.7529 52.6215V52.9414H13.3631V52.6215C13.7537 52.5912 14.0197 52.5092 14.1589 52.3667C14.2992 52.2264 14.3711 51.9716 14.3711 51.609V47.2425C14.3711 47.1325 14.3374 47.0584 14.2712 47.0056C14.2061 46.9574 14.0826 46.9293 13.903 46.9293H13.3642V46.6094H13.3608Z" fill="#C4C4C4"/>
<path d="M21.8169 46.6094H24.7343V46.9293H24.2336C24.0125 46.9293 23.8711 46.9607 23.8127 47.0168C23.7543 47.0707 23.7229 47.1852 23.7229 47.3682V52.1635C23.7229 52.3543 23.7487 52.4733 23.8026 52.5205C23.8711 52.5856 23.9957 52.6215 24.173 52.6215H24.7343V52.9414H21.8169V52.6215H22.368C22.5634 52.6215 22.688 52.5912 22.7441 52.5339C22.8025 52.4756 22.8305 52.3543 22.8305 52.1635V47.3682C22.8305 47.1852 22.8058 47.073 22.7531 47.0269C22.6722 46.9641 22.5252 46.9293 22.3119 46.9293H21.8169V46.6094Z" fill="#C4C4C4"/>
<path d="M25.4199 46.6094H26.9308L30.7484 51.5843V47.9822C30.7484 47.6208 30.6699 47.3536 30.5015 47.1796C30.3499 47.0191 30.1232 46.9405 29.8269 46.9293V46.6094H32.0427V46.9293C31.8171 46.9293 31.6453 46.9641 31.5376 47.0247C31.4242 47.0864 31.3265 47.1998 31.2435 47.3682C31.1593 47.5298 31.1166 47.7139 31.1166 47.9126V52.9425H30.7148L26.7647 47.7611V51.5832C26.7647 51.9289 26.8522 52.1871 27.0262 52.3555C27.2013 52.5272 27.4685 52.6136 27.8333 52.6226V52.9425H25.4199V52.6226C25.7241 52.6091 25.9632 52.5104 26.1394 52.3251C26.3146 52.1377 26.4044 51.9065 26.4044 51.6371V47.3525L26.328 47.2683C26.1855 47.1123 26.0856 47.0202 26.0238 46.9922C25.943 46.9506 25.8352 46.9304 25.7073 46.9304H25.4199V46.6094Z" fill="#C4C4C4"/>
<path d="M32.5322 46.6094H35.4507V46.9293H34.9501C34.7267 46.9293 34.5864 46.9607 34.5269 47.0168C34.4697 47.0707 34.4405 47.1852 34.4405 47.3682V52.1635C34.4405 52.3543 34.4674 52.4733 34.5191 52.5205C34.5864 52.5856 34.7088 52.6215 34.8906 52.6215H35.4507V52.9414H32.5322V52.6215H33.0834C33.2764 52.6215 33.4022 52.5912 33.4583 52.5339C33.5155 52.4756 33.5436 52.3543 33.5436 52.1635V47.3682C33.5436 47.1852 33.52 47.073 33.4673 47.0269C33.3865 46.9641 33.2416 46.9293 33.0273 46.9293H32.5322V46.6094Z" fill="#C4C4C4"/>
<path d="M39.8277 47.0867L40.2138 46.5367H40.527L40.5506 48.8445H40.27C40.0926 48.1374 39.8311 47.621 39.4831 47.2944C39.1385 46.9666 38.7389 46.8061 38.2876 46.8061C37.9105 46.8061 37.6029 46.9183 37.3616 47.1439C37.1236 47.3707 37.0046 47.6457 37.0046 47.9746C37.0046 48.1766 37.0518 48.3529 37.1404 48.5055C37.2336 48.6604 37.3683 48.7839 37.5513 48.8782C37.7309 48.9725 38.0721 49.078 38.575 49.1846C39.281 49.3362 39.7738 49.4911 40.0589 49.6516C40.3441 49.8076 40.554 50.0052 40.6954 50.2432C40.8335 50.4823 40.9042 50.7618 40.9042 51.0772C40.9042 51.6497 40.7145 52.1211 40.3306 52.5005C39.9478 52.8709 39.4494 53.0618 38.8433 53.0618C38.1889 53.0618 37.622 52.8474 37.1404 52.4242L36.6566 53.0157H36.3457V50.562H36.6566C36.7745 51.2377 37.0417 51.7754 37.4603 52.1649C37.8757 52.5555 38.3471 52.7463 38.868 52.7463C39.2889 52.7463 39.6369 52.6262 39.9029 52.3759C40.1689 52.1267 40.3025 51.8248 40.3025 51.4656C40.3025 51.2635 40.252 51.0839 40.1521 50.9346C40.0511 50.7786 39.8939 50.6529 39.6773 50.5485C39.4606 50.4441 39.033 50.3184 38.3976 50.1713C37.6983 50.0063 37.2213 49.8211 36.9698 49.6134C36.6117 49.3216 36.4333 48.9108 36.4333 48.3776C36.4333 47.8186 36.6106 47.3639 36.9664 47.0104C37.3212 46.6568 37.7746 46.4772 38.3292 46.4772C38.5952 46.4772 38.8478 46.521 39.088 46.6197C39.3271 46.714 39.5729 46.8678 39.8277 47.0867Z" fill="#C4C4C4"/>
<path d="M41.6851 46.6094H46.8239L46.9496 49.0048H46.6544C46.4591 47.5949 45.9506 46.8922 45.1256 46.8922C44.9605 46.8922 44.8449 46.9203 44.7843 46.9764C44.7237 47.0326 44.6934 47.1291 44.6934 47.2582V52.3173C44.6934 52.4228 44.7237 52.5014 44.7832 52.5452C44.8416 52.5957 44.9403 52.6204 45.0784 52.6204H45.7182V52.9403H42.775V52.6204H43.5024C43.599 52.6204 43.673 52.5957 43.7258 52.5452C43.7763 52.5003 43.801 52.4329 43.801 52.3543V47.2189C43.801 47.1145 43.7696 47.0303 43.7045 46.9742C43.6382 46.9203 43.5338 46.8922 43.3879 46.8922C42.976 46.8922 42.628 47.0853 42.3507 47.4793C42.124 47.8026 41.9601 48.3111 41.8591 49.0048H41.5459L41.6851 46.6094Z" fill="#C4C4C4"/>
<path d="M47.3664 46.6094H50.6407C51.2715 46.6094 51.7643 46.7531 52.1134 47.0404C52.4636 47.3334 52.6387 47.7072 52.6387 48.1798C52.6387 48.4559 52.5703 48.704 52.43 48.9262C52.2941 49.1429 52.0932 49.3168 51.8317 49.4448C51.5712 49.5761 51.1593 49.6704 50.6014 49.7243C51.0078 49.8399 51.2884 49.9488 51.4433 50.0566C51.5959 50.1621 51.7183 50.3013 51.8103 50.4685C51.9035 50.6403 52.009 50.986 52.1314 51.508C52.2189 51.8829 52.3087 52.1366 52.4086 52.2735C52.4816 52.3768 52.5613 52.4284 52.6455 52.4284C52.7342 52.4284 52.8172 52.3667 52.8936 52.2376C52.9688 52.1063 53.0137 51.8773 53.0316 51.5506H53.3223C53.2673 52.5216 52.9104 53.0076 52.2492 53.0076C52.0427 53.0076 51.8586 52.9515 51.7071 52.8449C51.5533 52.7405 51.4388 52.5867 51.3625 52.3779C51.3018 52.2264 51.2345 51.8268 51.1615 51.1712C51.1166 50.7929 51.0482 50.5202 50.9572 50.3597C50.8663 50.2025 50.7204 50.0745 50.5251 49.9769C50.3264 49.8792 50.0907 49.8298 49.8179 49.8298H49.2993V52.3162C49.2993 52.4239 49.324 52.4935 49.3812 52.5418C49.4475 52.5923 49.5564 52.6226 49.7012 52.6226H50.3107V52.9425H47.3664V52.6226H47.9905C48.1252 52.6226 48.2262 52.5923 48.2902 52.5418C48.3553 52.4857 48.389 52.4116 48.389 52.3162V47.2537C48.389 47.1504 48.353 47.0685 48.2879 47.0146C48.2217 46.9607 48.1207 46.9304 47.9893 46.9304H47.3652V46.6094H47.3664ZM49.3004 49.52H50.0514C50.5531 49.52 50.9438 49.4257 51.2278 49.2338C51.5129 49.0452 51.6554 48.7096 51.6554 48.2224C51.6554 47.8913 51.6004 47.6275 51.496 47.4344C51.386 47.2413 51.2468 47.1078 51.074 47.0337C50.8989 46.9641 50.5576 46.927 50.0458 46.927C49.709 46.927 49.4991 46.9529 49.4183 47C49.3397 47.0449 49.3004 47.1268 49.3004 47.2391V49.52Z" fill="#C4C4C4"/>
<path d="M56.543 46.4784H56.8281L59.0978 52.2716C59.1887 52.5051 59.3773 52.6218 59.6601 52.6218H59.8566V52.9418H57.3287V52.6218H57.533C57.7946 52.6218 57.9798 52.5915 58.0875 52.5343C58.1627 52.4928 58.202 52.4344 58.202 52.3491C58.202 52.3008 58.1897 52.2492 58.1706 52.1919L57.6453 50.8494H55.1421L54.8491 51.6194C54.7705 51.8282 54.7335 51.9899 54.7335 52.1134C54.7335 52.2481 54.7975 52.3682 54.9266 52.4703C55.0568 52.5691 55.2465 52.6218 55.4968 52.6218H55.7089V52.9418H53.4146V52.6218C53.6604 52.6218 53.8557 52.5668 53.9971 52.4602C54.1408 52.3524 54.2699 52.1481 54.3922 51.8507L56.543 46.4784ZM56.4161 47.6997L55.2813 50.516H57.515L56.4161 47.6997Z" fill="#C4C4C4"/>
<path d="M64.8826 47.107L65.1767 46.493H65.4473L65.5573 49.0388H65.271C65.0836 48.3204 64.8445 47.7951 64.5582 47.4527C64.2047 47.025 63.7848 46.814 63.2921 46.814C62.7611 46.814 62.3301 47.052 61.9945 47.5268C61.6611 47.9982 61.4949 48.7997 61.4949 49.9312C61.4949 50.8797 61.6846 51.6082 62.0697 52.1055C62.3941 52.5264 62.8532 52.7397 63.4402 52.7397C63.9543 52.7397 64.3843 52.5769 64.7322 52.2435C65.0802 51.9146 65.3081 51.4174 65.4136 50.7517H65.7178C65.628 51.5083 65.3721 52.0875 64.9433 52.4938C64.5156 52.8979 63.9757 53.1 63.3257 53.1C62.7959 53.1 62.311 52.9687 61.8699 52.6981C61.4298 52.4344 61.0774 52.055 60.8136 51.5588C60.5475 51.0593 60.4185 50.5138 60.4185 49.9211C60.4185 49.2891 60.552 48.6964 60.827 48.1453C61.0998 47.5908 61.4478 47.1754 61.8699 46.8948C62.2986 46.6164 62.7555 46.4795 63.2449 46.4795C63.5199 46.4795 63.786 46.5233 64.0419 46.622C64.2967 46.7141 64.5796 46.8735 64.8826 47.107Z" fill="#C4C4C4"/>
<path d="M66.4655 46.6094H69.3851V46.9293H68.8833C68.6622 46.9293 68.5208 46.9607 68.4613 47.0168C68.4029 47.0707 68.3748 47.1852 68.3748 47.3682V52.1635C68.3748 52.3543 68.4007 52.4733 68.4501 52.5205C68.5163 52.5856 68.6431 52.6215 68.8205 52.6215H69.384V52.9414H66.4644V52.6215H67.0155C67.2119 52.6215 67.3354 52.5912 67.3915 52.5339C67.4499 52.4756 67.4791 52.3543 67.4791 52.1635V47.3682C67.4791 47.1852 67.4522 47.073 67.4005 47.0269C67.3242 46.9641 67.1738 46.9293 66.9594 46.9293H66.4644V46.6094H66.4655Z" fill="#C4C4C4"/>
<path d="M73.0657 46.4784C73.5989 46.4784 74.1007 46.6187 74.5665 46.8993C75.0346 47.18 75.3972 47.5728 75.6621 48.0757C75.9259 48.5808 76.0583 49.1488 76.0583 49.7774C76.0583 50.4083 75.9259 50.9763 75.6621 51.4847C75.3961 51.9899 75.0301 52.3906 74.5665 52.6746C74.1018 52.9586 73.6102 53.0989 73.0904 53.0989C72.5831 53.0989 72.1071 52.962 71.6604 52.6802C71.217 52.4052 70.86 52.0067 70.5895 51.4904C70.319 50.9695 70.1865 50.3937 70.1865 49.764C70.1865 49.141 70.3156 48.582 70.5772 48.0768C70.8387 47.5773 71.1968 47.1844 71.6503 46.9038C72.1038 46.6209 72.5752 46.4784 73.0657 46.4784ZM73.1353 46.8062C72.5786 46.8062 72.1285 47.0363 71.7827 47.4999C71.437 47.9635 71.263 48.7167 71.263 49.764C71.263 50.8966 71.4415 51.6789 71.7951 52.1145C72.1509 52.5444 72.5876 52.7599 73.1095 52.7599C73.4754 52.7599 73.7965 52.6623 74.0715 52.4624C74.3488 52.2716 74.571 51.9573 74.736 51.5308C74.8999 51.1031 74.9807 50.5407 74.9807 49.8425C74.9807 49.0837 74.9055 48.491 74.7472 48.0645C74.5968 47.6379 74.3779 47.3214 74.0917 47.1148C73.8055 46.9072 73.4833 46.8062 73.1353 46.8062Z" fill="#C4C4C4"/>
<path d="M76.8899 46.6094H78.3997L82.2196 51.5843V47.9822C82.2196 47.6208 82.1343 47.3536 81.9681 47.1796C81.8188 47.0191 81.5921 46.9405 81.2935 46.9293V46.6094H83.5093V46.9293C83.2815 46.9293 83.1131 46.9641 83.0008 47.0247C82.8897 47.0864 82.7965 47.1998 82.7112 47.3682C82.6293 47.5298 82.5866 47.7139 82.5866 47.9126V52.9425H82.1848L78.2336 47.7611V51.5832C78.2336 51.9289 78.3189 52.1871 78.494 52.3555C78.6691 52.5272 78.9374 52.6136 79.3022 52.6226V52.9425H76.8877V52.6226C77.1885 52.6091 77.4287 52.5104 77.6072 52.3251C77.7823 52.1377 77.871 51.9065 77.871 51.6371V47.3525L77.798 47.2683C77.6544 47.1123 77.5511 47.0202 77.4927 46.9922C77.4074 46.9506 77.3019 46.9304 77.1739 46.9304H76.8877V46.6094H76.8899Z" fill="#C4C4C4"/>
<path d="M84.2505 46.6094H89.2647L89.3848 48.7466H89.0997C88.983 48.072 88.8034 47.6005 88.5564 47.3345C88.3095 47.064 87.9895 46.9293 87.5944 46.9293H86.3541C86.2542 46.9293 86.1789 46.9607 86.1273 47.0135C86.0768 47.0674 86.051 47.1482 86.051 47.2582V49.5189H86.5909C86.8816 49.5189 87.1185 49.4156 87.297 49.2046C87.4777 48.9958 87.5765 48.677 87.5899 48.2471H87.8851V51.1757H87.5899C87.5765 50.6897 87.4754 50.3439 87.2936 50.134C87.1095 49.9252 86.8603 49.822 86.5438 49.822H86.051V52.3386C86.051 52.4284 86.0802 52.5014 86.1385 52.5463C86.2014 52.5968 86.3047 52.6215 86.445 52.6215H87.4249C88.4879 52.6215 89.0986 51.939 89.2636 50.5808H89.5723L89.4656 52.9425H84.2505V52.6226H84.6815C84.8488 52.6226 84.9666 52.5923 85.0374 52.5294C85.107 52.4744 85.1361 52.3914 85.1361 52.2769V47.2593C85.1361 47.1493 85.1081 47.0685 85.0508 47.0146C84.9891 46.9607 84.8959 46.9304 84.7657 46.9304H84.2505V46.6094Z" fill="#C4C4C4"/>
<path d="M94.0598 47.0867L94.4437 46.5367H94.7558L94.7838 48.8445H94.5021C94.3214 48.1374 94.0654 47.621 93.7141 47.2944C93.3684 46.9666 92.9699 46.8061 92.5198 46.8061C92.1415 46.8061 91.8317 46.9183 91.5948 47.1439C91.3535 47.3707 91.2345 47.6457 91.2345 47.9746C91.2345 48.1766 91.2794 48.3529 91.3703 48.5055C91.4612 48.6604 91.5982 48.7839 91.7823 48.8782C91.9596 48.9725 92.3042 49.078 92.8071 49.1846C93.5121 49.3362 94.0071 49.4911 94.2899 49.6516C94.5728 49.8076 94.7861 50.0052 94.9253 50.2432C95.0678 50.4823 95.1341 50.7618 95.1341 51.0772C95.1341 51.6497 94.9444 52.1211 94.5582 52.5005C94.1766 52.8709 93.6804 53.0618 93.072 53.0618C92.4187 53.0618 91.8485 52.8474 91.367 52.4242L90.8854 53.0157H90.5801V50.562H90.8854C91.0044 51.2377 91.2738 51.7754 91.6914 52.1649C92.1056 52.5555 92.5759 52.7463 93.099 52.7463C93.5199 52.7463 93.8668 52.6262 94.1339 52.3759C94.4011 52.1267 94.5313 51.8248 94.5313 51.4656C94.5313 51.2635 94.483 51.0839 94.382 50.9346C94.2866 50.7786 94.1238 50.6529 93.9083 50.5485C93.6939 50.4441 93.2629 50.3184 92.6286 50.1713C91.9282 50.0063 91.45 49.8211 91.1975 49.6134C90.8405 49.3216 90.6631 48.9108 90.6631 48.3776C90.6631 47.8186 90.8383 47.3639 91.1963 47.0104C91.5499 46.6568 92.0045 46.4772 92.559 46.4772C92.8251 46.4772 93.0776 46.521 93.3167 46.6197C93.5536 46.714 93.8039 46.8678 94.0598 47.0867Z" fill="#C4C4C4"/>
<path d="M102.018 47.0867L102.406 46.5367H102.716L102.742 48.8445H102.46C102.285 48.1374 102.02 47.621 101.673 47.2944C101.326 46.9666 100.927 46.8061 100.475 46.8061C100.1 46.8061 99.7939 46.9183 99.5526 47.1439C99.3135 47.3707 99.1956 47.6457 99.1956 47.9746C99.1956 48.1766 99.2372 48.3529 99.3303 48.5055C99.4201 48.6604 99.5571 48.7839 99.7378 48.8782C99.9196 48.9725 100.262 49.078 100.766 49.1846C101.47 49.3362 101.96 49.4911 102.247 49.6516C102.533 49.8076 102.742 50.0052 102.884 50.2432C103.022 50.4823 103.093 50.7618 103.093 51.0772C103.093 51.6497 102.903 52.1211 102.518 52.5005C102.137 52.8709 101.639 53.0618 101.03 53.0618C100.378 53.0618 99.8119 52.8474 99.3247 52.4242L98.8409 53.0157H98.5322V50.562H98.8409C98.9621 51.2377 99.2304 51.7754 99.6491 52.1649C100.064 52.5555 100.537 52.7463 101.053 52.7463C101.475 52.7463 101.821 52.6262 102.089 52.3759C102.355 52.1267 102.49 51.8248 102.49 51.4656C102.49 51.2635 102.439 51.0839 102.339 50.9346C102.239 50.7786 102.083 50.6529 101.866 50.5485C101.648 50.4441 101.221 50.3184 100.586 50.1713C99.8871 50.0063 99.4089 49.8211 99.1541 49.6134C98.8005 49.3216 98.6198 48.9108 98.6198 48.3776C98.6198 47.8186 98.7971 47.3639 99.1541 47.0104C99.5077 46.6568 99.9623 46.4772 100.516 46.4772C100.778 46.4772 101.033 46.521 101.273 46.6197C101.512 46.714 101.761 46.8678 102.018 47.0867Z" fill="#C4C4C4"/>
<path d="M104.707 52.0078C104.849 52.0078 104.968 52.0572 105.073 52.1638C105.17 52.2649 105.219 52.3861 105.219 52.5287C105.219 52.6779 105.17 52.8025 105.073 52.9081C104.969 53.0091 104.849 53.063 104.706 53.063C104.559 53.063 104.439 53.0091 104.337 52.9081C104.235 52.8014 104.184 52.6813 104.184 52.5343C104.184 52.3906 104.235 52.2649 104.337 52.1638C104.438 52.0572 104.562 52.0078 104.707 52.0078Z" fill="#C4C4C4"/>
<path d="M106.142 46.6094H109.414C110.046 46.6094 110.541 46.7531 110.887 47.0404C111.241 47.3334 111.416 47.7072 111.416 48.1798C111.416 48.4559 111.346 48.704 111.208 48.9262C111.066 49.1429 110.868 49.3168 110.607 49.4448C110.347 49.5761 109.932 49.6704 109.375 49.7243C109.785 49.8399 110.062 49.9488 110.217 50.0566C110.372 50.1621 110.491 50.3013 110.589 50.4685C110.677 50.6403 110.787 50.986 110.906 51.508C110.994 51.8829 111.084 52.1366 111.182 52.2735C111.257 52.3768 111.335 52.4284 111.419 52.4284C111.508 52.4284 111.593 52.3667 111.667 52.2376C111.745 52.1063 111.79 51.8773 111.807 51.5506H112.098C112.042 52.5216 111.683 53.0076 111.023 53.0076C110.814 53.0076 110.632 52.9515 110.482 52.8449C110.327 52.7405 110.213 52.5867 110.137 52.3779C110.077 52.2264 110.011 51.8268 109.938 51.1712C109.895 50.7929 109.826 50.5202 109.733 50.3597C109.641 50.2025 109.495 50.0745 109.297 49.9769C109.1 49.8792 108.866 49.8298 108.592 49.8298H108.073V52.3162C108.073 52.4239 108.1 52.4935 108.155 52.5418C108.225 52.5923 108.33 52.6226 108.475 52.6226H109.082V52.9425H106.14V52.6226H106.764C106.902 52.6226 107.003 52.5923 107.066 52.5418C107.129 52.4857 107.16 52.4116 107.16 52.3162V47.2537C107.16 47.1504 107.129 47.0685 107.064 47.0146C106.998 46.9607 106.899 46.9304 106.764 46.9304H106.14V46.6094H106.142ZM108.074 49.52H108.824C109.328 49.52 109.719 49.4257 110.004 49.2338C110.291 49.0452 110.43 48.7096 110.43 48.2224C110.43 47.8913 110.376 47.6275 110.266 47.4344C110.163 47.2413 110.021 47.1078 109.846 47.0337C109.676 46.9641 109.328 46.927 108.82 46.927C108.483 46.927 108.275 46.9529 108.193 47C108.115 47.0449 108.074 47.1268 108.074 47.2391V49.52Z" fill="#C4C4C4"/>
<path d="M113.472 52.0078C113.617 52.0078 113.736 52.0572 113.835 52.1638C113.936 52.2649 113.989 52.3861 113.989 52.5287C113.989 52.6779 113.936 52.8025 113.835 52.9081C113.736 53.0091 113.617 53.063 113.469 53.063C113.326 53.063 113.202 53.0091 113.104 52.9081C113.002 52.8014 112.949 52.6813 112.949 52.5343C112.949 52.3906 113.002 52.2649 113.104 52.1638C113.202 52.0572 113.326 52.0078 113.472 52.0078Z" fill="#C4C4C4"/>
<path d="M114.96 46.6094H117.9V46.9293H117.199C117.088 46.9293 117.006 46.9607 116.954 47.0191C116.899 47.0763 116.873 47.1706 116.873 47.2941V52.2904C116.873 52.4116 116.905 52.4935 116.974 52.544C117.039 52.5979 117.175 52.6226 117.377 52.6226H118.268C118.742 52.6226 119.128 52.4632 119.425 52.1456C119.729 51.8335 119.946 51.2824 120.082 50.5056H120.385L120.237 52.9425H114.96V52.6226H115.481C115.659 52.6226 115.782 52.5867 115.855 52.5216C115.928 52.4554 115.961 52.3442 115.961 52.1927V47.2537C115.961 47.1437 115.931 47.0685 115.871 47.0146C115.811 46.9607 115.723 46.9304 115.605 46.9304H114.961V46.6094H114.96Z" fill="#C4C4C4"/>
<path d="M121.755 52.0078C121.9 52.0078 122.019 52.0572 122.119 52.1638C122.22 52.2649 122.271 52.3861 122.271 52.5287C122.271 52.6779 122.22 52.8025 122.119 52.9081C122.019 53.0091 121.897 53.063 121.753 53.063C121.609 53.063 121.486 53.0091 121.387 52.9081C121.283 52.8014 121.233 52.6813 121.233 52.5343C121.233 52.3906 121.283 52.2649 121.387 52.1638C121.487 52.0572 121.612 52.0078 121.755 52.0078Z" fill="#C4C4C4"/>
</svg>
