<svg width="19" height="18" viewBox="0 0 19 18" fill="none" xmlns="http://www.w3.org/2000/svg">
<g clip-path="url(#clip0_10055_3967)">
<path d="M5.93131 14.5778H3.51892V6.78918H5.93131V14.5778ZM6.17202 4.30772C6.17202 3.52786 5.5393 2.89488 4.75985 2.89488C3.97743 2.89488 3.34633 3.52786 3.34633 4.30772C3.34633 5.08784 3.97743 5.72083 4.75985 5.72083C5.5393 5.72083 6.17202 5.08784 6.17202 4.30772ZM14.9603 10.2928C14.9603 8.20202 14.5186 6.65133 12.0762 6.65133C10.9026 6.65133 10.1148 7.23827 9.79317 7.84864H9.79088V6.78918H7.44741V14.5778H9.79088V10.7107C9.79088 9.69792 10.0487 8.71681 11.304 8.71681C12.5423 8.71681 12.5824 9.87495 12.5824 10.775V14.5778H14.9603V10.2928ZM18.062 15.5772V2.06777C18.062 0.927535 17.1344 0 15.9942 0H2.48476C1.34453 0 0.416992 0.927535 0.416992 2.06777V15.5772C0.416992 16.7174 1.34453 17.645 2.48476 17.645H15.9942C17.1344 17.645 18.062 16.7174 18.062 15.5772ZM15.9942 1.37851C16.3742 1.37851 16.6834 1.68774 16.6834 2.06777V15.5772C16.6834 15.9572 16.3742 16.2665 15.9942 16.2665H2.48476C2.10473 16.2665 1.79551 15.9572 1.79551 15.5772V2.06777C1.79551 1.68774 2.10473 1.37851 2.48476 1.37851H15.9942Z" fill="#1B435F"/>
</g>
<defs>
<clipPath id="clip0_10055_3967">
<rect width="17.645" height="17.645" fill="white" transform="translate(0.416992)"/>
</clipPath>
</defs>
</svg>
