<svg width="20" height="21" viewBox="0 0 20 21" fill="none" xmlns="http://www.w3.org/2000/svg">
<g clip-path="url(#clip0_7952_1974)">
<path fill-rule="evenodd" clip-rule="evenodd" d="M10 2.33337C8.27609 2.33337 6.62279 3.01819 5.40381 4.23718C4.18482 5.45617 3.5 7.10947 3.5 8.83338C3.5 11.3481 5.14074 13.8126 6.97595 15.7498C7.87311 16.6968 8.77367 17.4726 9.45105 18.012C9.65778 18.1767 9.84297 18.3187 10 18.4362C10.157 18.3187 10.3422 18.1767 10.5489 18.012C11.2263 17.4726 12.1269 16.6968 13.024 15.7498C14.8593 13.8126 16.5 11.3481 16.5 8.83338C16.5 7.10947 15.8152 5.45617 14.5962 4.23718C13.3772 3.01819 11.7239 2.33337 10 2.33337ZM10 19.6667C9.4453 20.4988 9.44505 20.4986 9.44478 20.4984L9.44217 20.4967L9.43632 20.4927L9.41662 20.4794C9.39999 20.4681 9.37643 20.452 9.3464 20.4312C9.28636 20.3896 9.20041 20.3293 9.09224 20.2512C8.87601 20.095 8.57042 19.8674 8.2052 19.5766C7.47633 18.9962 6.50189 18.1575 5.52405 17.1253C3.60926 15.1041 1.5 12.152 1.5 8.83338C1.5 6.57904 2.39553 4.41703 3.98959 2.82297C5.58365 1.22891 7.74566 0.333374 10 0.333374C12.2543 0.333374 14.4163 1.22891 16.0104 2.82297C17.6045 4.41703 18.5 6.57903 18.5 8.83338C18.5 12.152 16.3907 15.1041 14.476 17.1253C13.4981 18.1575 12.5237 18.9962 11.7948 19.5766C11.4296 19.8674 11.124 20.095 10.9078 20.2512C10.7996 20.3293 10.7136 20.3896 10.6536 20.4312C10.6236 20.452 10.6 20.4681 10.5834 20.4794L10.5637 20.4927L10.5578 20.4967L10.5559 20.4979C10.5556 20.4981 10.5547 20.4988 10 19.6667ZM10 19.6667L10.5547 20.4988C10.2188 20.7227 9.78067 20.7223 9.44478 20.4984L10 19.6667Z" fill="#5EB2F9"/>
<path fill-rule="evenodd" clip-rule="evenodd" d="M10 7.33337C9.17157 7.33337 8.5 8.00495 8.5 8.83337C8.5 9.6618 9.17157 10.3334 10 10.3334C10.8284 10.3334 11.5 9.6618 11.5 8.83337C11.5 8.00495 10.8284 7.33337 10 7.33337ZM6.5 8.83337C6.5 6.90038 8.067 5.33337 10 5.33337C11.933 5.33337 13.5 6.90038 13.5 8.83337C13.5 10.7664 11.933 12.3334 10 12.3334C8.067 12.3334 6.5 10.7664 6.5 8.83337Z" fill="#5EB2F9"/>
</g>
<defs>
<clipPath id="clip0_7952_1974">
<rect width="20" height="20" fill="white" transform="translate(0 0.5)"/>
</clipPath>
</defs>
</svg>
