<svg width="64" height="64" viewBox="0 0 64 64" fill="none" xmlns="http://www.w3.org/2000/svg">
<circle opacity="0.2" cx="32" cy="32" r="32" fill="#5EB2F9"/>
<path d="M32.5 22.4375C30.4039 22.44 28.3944 23.2737 26.9122 24.7559C25.43 26.2381 24.5962 28.2476 24.5938 30.3438C24.5912 32.0567 25.1508 33.7232 26.1865 35.0875C26.1865 35.0875 26.4021 35.3714 26.4374 35.4124L32.5 42.5625L38.5655 35.4088C38.5972 35.3707 38.8135 35.0875 38.8135 35.0875L38.8142 35.0853C39.8494 33.7216 40.4087 32.0559 40.4063 30.3438C40.4038 28.2476 39.57 26.2381 38.0878 24.7559C36.6057 23.2737 34.5961 22.44 32.5 22.4375ZM32.5 33.2188C31.9314 33.2188 31.3755 33.0501 30.9027 32.7342C30.43 32.4183 30.0615 31.9693 29.8439 31.444C29.6263 30.9186 29.5693 30.3406 29.6803 29.7829C29.7912 29.2252 30.065 28.7129 30.4671 28.3108C30.8692 27.9087 31.3814 27.6349 31.9391 27.524C32.4968 27.4131 33.0749 27.47 33.6002 27.6876C34.1256 27.9052 34.5746 28.2737 34.8905 28.7465C35.2064 29.2193 35.375 29.7751 35.375 30.3438C35.3741 31.106 35.0709 31.8367 34.5319 32.3756C33.9929 32.9146 33.2622 33.2178 32.5 33.2188Z" fill="#5EB2F9"/>
</svg>
