<svg width="19" height="19" viewBox="0 0 19 19" fill="none" xmlns="http://www.w3.org/2000/svg">
<g clip-path="url(#clip0_10055_3961)">
<path d="M3.12479 18.4852H9.15414V11.9143H6.98791V9.74806H9.15414V7.04026C9.15414 5.54717 10.3688 4.33247 11.8619 4.33247H14.5697V6.49871H12.4035C11.8062 6.49871 11.3204 6.98456 11.3204 7.58182V9.74806H14.472L14.111 11.9143H11.3204V18.4852H16.1944C17.6875 18.4852 18.9022 17.2705 18.9022 15.7774V2.70779C18.9022 1.2147 17.6875 0 16.1944 0H3.12479C1.63169 0 0.416992 1.2147 0.416992 2.70779V15.7774C0.416992 17.2705 1.63169 18.4852 3.12479 18.4852ZM1.50011 2.70779C1.50011 1.81197 2.22896 1.08312 3.12479 1.08312H16.1944C17.0902 1.08312 17.8191 1.81197 17.8191 2.70779V15.7774C17.8191 16.6732 17.0902 17.4021 16.1944 17.4021H12.4035V12.9974H15.0285L15.7506 8.66494H12.4035V7.58182H15.6528V3.24935H11.8619C9.77157 3.24935 8.07102 4.9499 8.07102 7.04026V8.66494H5.90479V12.9974H8.07102V17.4021H3.12479C2.22896 17.4021 1.50011 16.6732 1.50011 15.7774V2.70779Z" fill="#1B435F"/>
</g>
<defs>
<clipPath id="clip0_10055_3961">
<rect width="18.4852" height="18.4852" fill="white" transform="translate(0.416992)"/>
</clipPath>
</defs>
</svg>
