<svg width="24" height="24" viewBox="0 0 24 24" fill="none" xmlns="http://www.w3.org/2000/svg">
<g clip-path="url(#clip0_7952_1948)">
<path d="M12.5846 6.55617C12.5846 5.97341 12.3384 5.41452 11.9 5.00245C11.4616 4.59039 10.867 4.35889 10.247 4.35889C9.627 4.35889 9.03241 4.59039 8.59401 5.00245C8.15561 5.41452 7.90933 5.97341 7.90933 6.55617V13.148M12.5846 8.75344V9.85208M4.40283 13.148H19.5976V15.3453C19.5976 16.2194 19.2282 17.0577 18.5706 17.6758C17.913 18.294 17.0211 18.6412 16.0911 18.6412H7.90933C6.97935 18.6412 6.08746 18.294 5.42986 17.6758C4.77227 17.0577 4.40283 16.2194 4.40283 15.3453V13.148Z" stroke="#5EB2F9" stroke-width="2" stroke-linecap="round" stroke-linejoin="round"/>
</g>
<defs>
<clipPath id="clip0_7952_1948">
<rect width="18" height="17" fill="white" transform="translate(3 3)"/>
</clipPath>
</defs>
</svg>
