<svg width="36" height="37" viewBox="0 0 36 37" fill="none" xmlns="http://www.w3.org/2000/svg">
<g clip-path="url(#clip0_10055_3758)">
<path d="M0.768379 18.2785C0.767535 21.3873 1.56404 24.4227 3.07857 27.0982L0.623535 36.2395L9.79679 33.7866C12.334 35.1952 15.1767 35.9332 18.0655 35.9334H18.0731C27.6096 35.9334 35.3725 28.0196 35.3766 18.2924C35.3784 13.579 33.5801 9.14671 30.3128 5.81212C27.0461 2.47782 22.7015 0.640579 18.0724 0.638428C8.53482 0.638428 0.772457 8.55184 0.76852 18.2785" fill="url(#paint0_linear_10055_3758)"/>
<path d="M0.150469 18.2728C0.149484 21.4934 0.974531 24.6374 2.54306 27.4087L0 36.8777L9.50217 34.3369C12.1203 35.7926 15.0681 36.5602 18.0676 36.5613H18.0754C27.954 36.5613 35.9958 28.3628 36 18.2875C36.0017 13.4046 34.1387 8.81303 30.7547 5.35898C27.3703 1.90536 22.8703 0.00200775 18.0754 0C8.19506 0 0.154406 8.19737 0.150469 18.2728ZM5.80922 26.9314L5.45442 26.3571C3.96295 23.9386 3.17573 21.1438 3.17686 18.274C3.18009 9.89951 9.86316 3.0862 18.081 3.0862C22.0607 3.08792 25.8007 4.67003 28.6138 7.54054C31.4267 10.4113 32.9746 14.2275 32.9736 18.2863C32.97 26.6608 26.2867 33.475 18.0754 33.475H18.0695C15.3958 33.4735 12.7735 32.7413 10.4867 31.3575L9.94247 31.0284L4.30369 32.5361L5.80922 26.9313V26.9314Z" fill="url(#paint1_linear_10055_3758)"/>
<path d="M13.5953 10.6336C13.2597 9.87305 12.9066 9.8577 12.5875 9.84437C12.3263 9.83289 12.0276 9.83375 11.7292 9.83375C11.4305 9.83375 10.9452 9.94834 10.535 10.4051C10.1243 10.8623 8.96729 11.9671 8.96729 14.2142C8.96729 16.4615 10.5722 18.6332 10.796 18.9382C11.02 19.2427 13.8944 24.0016 18.4467 25.8324C22.2301 27.3538 23 27.0512 23.8211 26.9749C24.6423 26.8989 26.471 25.8704 26.8441 24.8038C27.2175 23.7374 27.2175 22.8233 27.1055 22.6323C26.9936 22.442 26.6949 22.3277 26.247 22.0994C25.799 21.8709 23.5971 20.766 23.1866 20.6135C22.776 20.4612 22.4774 20.3852 22.1787 20.8425C21.88 21.2992 21.0224 22.3277 20.7609 22.6323C20.4998 22.9376 20.2384 22.9756 19.7906 22.7472C19.3425 22.518 17.9001 22.0363 16.1888 20.4804C14.8574 19.2698 13.9585 17.7747 13.6972 17.3174C13.4359 16.8607 13.6692 16.6132 13.8938 16.3856C14.095 16.181 14.3418 15.8523 14.566 15.5857C14.7893 15.3189 14.8638 15.1286 15.0132 14.824C15.1627 14.5191 15.0878 14.2524 14.9761 14.0239C14.8638 13.7955 13.9935 11.5366 13.5953 10.6336Z" fill="white"/>
</g>
<defs>
<linearGradient id="paint0_linear_10055_3758" x1="1738.28" y1="3560.74" x2="1738.28" y2="0.638428" gradientUnits="userSpaceOnUse">
<stop stop-color="#1FAF38"/>
<stop offset="1" stop-color="#60D669"/>
</linearGradient>
<linearGradient id="paint1_linear_10055_3758" x1="1800" y1="3687.77" x2="1800" y2="0" gradientUnits="userSpaceOnUse">
<stop stop-color="#F9F9F9"/>
<stop offset="1" stop-color="white"/>
</linearGradient>
<clipPath id="clip0_10055_3758">
<rect width="36" height="37" fill="white"/>
</clipPath>
</defs>
</svg>
