<svg width="21" height="20" viewBox="0 0 21 20" fill="none" xmlns="http://www.w3.org/2000/svg">
<path d="M7.8 8.28571C7.5613 8.28571 7.33239 8.37602 7.1636 8.53677C6.99482 8.69751 6.9 8.91553 6.9 9.14286V10.8571C6.9 11.0845 6.99482 11.3025 7.1636 11.4632C7.33239 11.624 7.5613 11.7143 7.8 11.7143C8.03869 11.7143 8.26761 11.624 8.4364 11.4632C8.60518 11.3025 8.7 11.0845 8.7 10.8571V9.14286C8.7 8.91553 8.60518 8.69751 8.4364 8.53677C8.26761 8.37602 8.03869 8.28571 7.8 8.28571ZM18.6 9.14286C18.8387 9.14286 19.0676 9.05255 19.2364 8.89181C19.4052 8.73106 19.5 8.51304 19.5 8.28571V4.85714C19.5 4.62981 19.4052 4.4118 19.2364 4.25105C19.0676 4.09031 18.8387 4 18.6 4H2.4C2.16131 4 1.93239 4.09031 1.7636 4.25105C1.59482 4.4118 1.5 4.62981 1.5 4.85714V8.28571C1.5 8.51304 1.59482 8.73106 1.7636 8.89181C1.93239 9.05255 2.16131 9.14286 2.4 9.14286C2.63869 9.14286 2.86761 9.23316 3.0364 9.39391C3.20518 9.55465 3.3 9.77267 3.3 10C3.3 10.2273 3.20518 10.4453 3.0364 10.6061C2.86761 10.7668 2.63869 10.8571 2.4 10.8571C2.16131 10.8571 1.93239 10.9474 1.7636 11.1082C1.59482 11.2689 1.5 11.487 1.5 11.7143V15.1429C1.5 15.3702 1.59482 15.5882 1.7636 15.749C1.93239 15.9097 2.16131 16 2.4 16H18.6C18.8387 16 19.0676 15.9097 19.2364 15.749C19.4052 15.5882 19.5 15.3702 19.5 15.1429V11.7143C19.5 11.487 19.4052 11.2689 19.2364 11.1082C19.0676 10.9474 18.8387 10.8571 18.6 10.8571C18.3613 10.8571 18.1324 10.7668 17.9636 10.6061C17.7948 10.4453 17.7 10.2273 17.7 10C17.7 9.77267 17.7948 9.55465 17.9636 9.39391C18.1324 9.23316 18.3613 9.14286 18.6 9.14286ZM17.7 7.58286C17.1788 7.76303 16.7284 8.09168 16.4102 8.52414C16.0919 8.9566 15.9212 9.4719 15.9212 10C15.9212 10.5281 16.0919 11.0434 16.4102 11.4759C16.7284 11.9083 17.1788 12.237 17.7 12.4171V14.2857H8.7C8.7 14.0584 8.60518 13.8404 8.4364 13.6796C8.26761 13.5189 8.03869 13.4286 7.8 13.4286C7.5613 13.4286 7.33239 13.5189 7.1636 13.6796C6.99482 13.8404 6.9 14.0584 6.9 14.2857H3.3V12.4171C3.82124 12.237 4.27159 11.9083 4.58984 11.4759C4.9081 11.0434 5.07883 10.5281 5.07883 10C5.07883 9.4719 4.9081 8.9566 4.58984 8.52414C4.27159 8.09168 3.82124 7.76303 3.3 7.58286V5.71429H6.9C6.9 5.94161 6.99482 6.15963 7.1636 6.32038C7.33239 6.48112 7.5613 6.57143 7.8 6.57143C8.03869 6.57143 8.26761 6.48112 8.4364 6.32038C8.60518 6.15963 8.7 5.94161 8.7 5.71429H17.7V7.58286Z" fill="white"/>
</svg>
